<svg aria-hidden="true" style="position: absolute; width: 0; height: 0; overflow: hidden;" version="1.1" xmlns="http://www.w3.org/2000/svg" xmlns:xlink="http://www.w3.org/1999/xlink">
<defs>
<symbol id="icon-connection" viewBox="0 0 32 32">
<path d="M28.84 23.114v-5.233c0-0.773-0.629-1.401-1.401-1.401h-10.66v-4.509c2.649-0.379 4.691-2.662 4.691-5.414 0-3.016-2.454-5.47-5.47-5.47s-5.47 2.454-5.47 5.47c0 2.752 2.043 5.035 4.691 5.414v4.509h-10.66c-0.773 0-1.401 0.629-1.401 1.401v5.233c-1.8 0.362-3.16 1.956-3.16 3.861 0 2.172 1.767 3.938 3.938 3.938s3.938-1.767 3.938-3.938c0-1.905-1.36-3.498-3.16-3.861v-5.078h10.505v5.078c-1.8 0.362-3.16 1.956-3.16 3.861 0 2.172 1.767 3.938 3.938 3.938s3.938-1.767 3.938-3.938c0-1.905-1.36-3.498-3.16-3.861v-5.078h10.505v5.078c-1.8 0.363-3.16 1.956-3.16 3.861 0 2.172 1.767 3.938 3.938 3.938s3.938-1.767 3.938-3.938c0-1.905-1.36-3.498-3.16-3.861zM12.087 6.557c0-2.158 1.755-3.913 3.913-3.913s3.913 1.755 3.913 3.913-1.755 3.913-3.913 3.913c-2.158 0-3.913-1.755-3.913-3.913zM6.319 26.975c0 1.313-1.068 2.381-2.381 2.381s-2.381-1.068-2.381-2.381c0-1.313 1.068-2.381 2.381-2.381s2.381 1.068 2.381 2.381zM18.381 26.975c0 1.313-1.068 2.381-2.381 2.381s-2.381-1.068-2.381-2.381c0-1.313 1.068-2.381 2.381-2.381s2.381 1.068 2.381 2.381zM28.062 29.356c-1.313 0-2.381-1.068-2.381-2.381s1.068-2.381 2.381-2.381c1.313 0 2.381 1.068 2.381 2.381s-1.068 2.381-2.381 2.381z"></path>
</symbol>
</defs>
</svg>